<?xml version="1.0" standalone="no"?>
<!DOCTYPE svg PUBLIC "-//W3C//DTD SVG 20010904//EN"
 "http://www.w3.org/TR/2001/REC-SVG-20010904/DTD/svg10.dtd">
<svg version="1.0" xmlns="http://www.w3.org/2000/svg"
 width="700.000000pt" height="700.000000pt" viewBox="0 0 700.000000 700.000000"
 preserveAspectRatio="xMidYMid meet">
<metadata>
Created by potrace 1.11, written by Peter Selinger 2001-2013
</metadata>
<g transform="translate(0.000000,700.000000) scale(0.100000,-0.100000)"
fill="#000000" stroke="none">
<path d="M320 6981 c-87 -28 -136 -57 -192 -115 -60 -60 -90 -114 -113 -201
-13 -53 -15 -392 -15 -3176 0 -3015 1 -3118 19 -3171 30 -87 58 -134 111 -188
58 -57 110 -87 195 -112 56 -17 232 -18 3161 -18 2080 0 3118 3 3155 10 83 16
169 61 227 119 55 55 83 101 113 189 18 53 19 152 19 3182 0 3027 -1 3129 -19
3182 -30 87 -58 134 -112 188 -59 59 -143 104 -220 119 -36 7 -1064 10 -3164
10 -2950 0 -3113 -1 -3165 -18z"/>
</g>
</svg>
