<?xml version="1.0" encoding="utf-8"?>
<!-- Generator: Adobe Illustrator 22.0.1, SVG Export Plug-In . SVG Version: 6.00 Build 0)  -->
<svg version="1.1" xmlns="http://www.w3.org/2000/svg" xmlns:xlink="http://www.w3.org/1999/xlink" x="0px" y="0px"
	 viewBox="0 0 579.8 144" style="enable-background:new 0 0 579.8 144;" xml:space="preserve">
<style type="text/css">
	.st0{fill:#006998;}
	.st1{fill:#FFFFFF;}
	.st2{fill:#244297;}
</style>
<g id="Layer_1">
</g>
<g id="Layer_2">
	<g>
		<path d="M0.7,36.1h18.7v35.3l33-35.3h24.5L39.1,75.5l41,45.5H54L19.4,80.7V121H0.7V36.1z"/>
		<path d="M107.9,61.3c18,0,32.4,12,32.4,30.6c0,18.6-14.4,30.6-32.4,30.6c-18,0-32.4-12-32.4-30.6C75.5,73.3,89.9,61.3,107.9,61.3z
			 M107.9,106.6c9,0,14.4-6,14.4-14.8s-5.4-14.8-14.4-14.8s-14.4,6-14.4,14.8S98.9,106.6,107.9,106.6z"/>
		<path d="M144.1,62.7h17.3v7.9h0.2c2.4-4.6,8.3-9.4,17-9.4c18.2,0,21.6,12,21.6,27.6V121h-18V92.5c0-6.7-0.1-15.4-9.4-15.4
			c-9.4,0-10.8,7.3-10.8,14.9v29h-18V62.7z"/>
		<path d="M206.2,62.7h17.3v7.9h0.2c2.4-4.6,8.3-9.4,17-9.4c18.2,0,21.6,12,21.6,27.6V121h-18V92.5c0-6.7-0.1-15.4-9.4-15.4
			c-9.4,0-10.8,7.3-10.8,14.9v29h-18V62.7z"/>
		<path d="M323.6,110.9c-5.8,7.3-15.2,11.5-24.6,11.5c-18,0-32.4-12-32.4-30.6c0-18.6,14.4-30.6,32.4-30.6c16.8,0,27.4,12,27.4,30.6
			v5.6h-41.8c1.4,6.8,6.6,11.3,13.6,11.3c5.9,0,9.8-3,12.8-7.1L323.6,110.9z M308.4,85.3c0.1-6-4.6-11-11-11
			c-7.9,0-12.2,5.4-12.7,11H308.4z"/>
		<path d="M370,81.5c-1.8-2.5-5.2-4.4-8.9-4.4c-9,0-14.4,6-14.4,14.8s5.4,14.8,14.4,14.8c4,0,6.8-2,8.9-4.4l11.9,12.5
			c-5.6,5.8-13.9,7.8-20.8,7.8c-18,0-32.4-12-32.4-30.6c0-18.6,14.4-30.6,32.4-30.6c6.8,0,15.1,2,20.8,7.8L370,81.5z"/>
		<path d="M421.4,77.1h-15.8v19.4c0,6.2,0.7,10.8,8.5,10.8c1.9,0,5.8-0.2,7.3-1.7v15c-4,1.4-8.4,1.8-12.6,1.8
			c-12,0-21.2-4.9-21.2-17.6V77.1H376V62.7h11.5V45.4h18v17.3h15.8V77.1z"/>
	</g>
	<path class="st2" d="M570.7,0h-126c-5,0-9,4-9,9v126c0,5,4,9,9,9h126c5,0,9-4,9-9V9C579.7,4,575.7,0,570.7,0z"/>
	<g>
		<path class="st1" d="M502,110.9c-5.8,7.3-15.2,11.5-24.6,11.5c-18,0-32.4-12-32.4-30.6c0-18.6,14.4-30.6,32.4-30.6
			c16.8,0,27.4,12,27.4,30.6v5.6H463c1.4,6.8,6.6,11.3,13.6,11.3c5.9,0,9.8-3,12.8-7.1L502,110.9z M486.7,85.3c0.1-6-4.6-11-11-11
			c-7.9,0-12.2,5.4-12.7,11H486.7z"/>
		<path class="st1" d="M570.1,121h-16.6v-7.7h-0.2c-2.8,4.2-9.7,9.1-17.9,9.1c-17.3,0-28.7-12.5-28.7-30.1
			c0-16.2,10.1-31.1,26.6-31.1c7.4,0,14.4,2,18.5,7.7h0.2V30.3h18V121z M539.2,77.1c-9,0-14.4,6-14.4,14.8s5.4,14.8,14.4,14.8
			s14.4-6,14.4-14.8S548.2,77.1,539.2,77.1z"/>
	</g>
</g>
</svg>
