<?xml version="1.0" encoding="utf-8"?>
<!-- Generator: Adobe Illustrator 22.0.1, SVG Export Plug-In . SVG Version: 6.00 Build 0)  -->
<svg version="1.1" id="Layer_1" xmlns="http://www.w3.org/2000/svg" xmlns:xlink="http://www.w3.org/1999/xlink" x="0px" y="0px"
	 viewBox="0 0 144 144" style="enable-background:new 0 0 144 144;" xml:space="preserve">
<style type="text/css">
	.st0{fill:#244196;}
	.st1{fill:#FFFFFF;}
</style>
<g>
	<path class="st0" d="M135,0H9C4,0,0,4,0,9v126c0,5,4,9,9,9h126c5,0,9-4,9-9V9C144,4,140,0,135,0z"/>
	<g>
		<path class="st1" d="M66.2,110.9c-5.8,7.3-15.2,11.5-24.6,11.5c-18,0-32.4-12-32.4-30.6c0-18.6,14.4-30.6,32.4-30.6
			c16.8,0,27.4,12,27.4,30.6v5.6H27.2c1.4,6.8,6.6,11.3,13.6,11.3c5.9,0,9.8-3,12.8-7.1L66.2,110.9z M51,85.2c0.1-6-4.6-11-11-11
			c-7.9,0-12.2,5.4-12.7,11H51z"/>
		<path class="st1" d="M134.4,121h-16.6v-7.7h-0.2c-2.8,4.2-9.7,9.1-17.9,9.1C82.4,122.4,71,110,71,92.3c0-16.2,10.1-31.1,26.6-31.1
			c7.4,0,14.4,2,18.5,7.7h0.2V30.3h18V121z M103.4,77.1c-9,0-14.4,6-14.4,14.8s5.4,14.8,14.4,14.8c9,0,14.4-6,14.4-14.8
			S112.4,77.1,103.4,77.1z"/>
	</g>
</g>
</svg>
